<svg width="22" height="22" viewBox="0 0 22 22" fill="none" xmlns="http://www.w3.org/2000/svg">
<path d="M2.52148 2.97925L4.42815 3.30925L5.3109 13.8262C5.34481 14.24 5.53351 14.6259 5.83934 14.9067C6.14518 15.1876 6.54567 15.3428 6.9609 15.3414H16.9617C17.3593 15.3419 17.7437 15.1987 18.0442 14.9383C18.3446 14.678 18.541 14.3179 18.5971 13.9242L19.4679 7.91275C19.4911 7.75287 19.4826 7.58999 19.4428 7.43341C19.403 7.27684 19.3328 7.12964 19.236 7.00023C19.1393 6.87083 19.0181 6.76175 18.8792 6.67925C18.7403 6.59675 18.5865 6.54244 18.4266 6.51941C18.3679 6.513 4.73432 6.50841 4.73432 6.50841" stroke="#272343" stroke-width="1.5" stroke-linecap="round" stroke-linejoin="round"/>
<path d="M12.9492 9.89551H15.4911" stroke="#272343" stroke-width="1.5" stroke-linecap="round" stroke-linejoin="round"/>
<path fill-rule="evenodd" clip-rule="evenodd" d="M6.55932 18.5195C6.62655 18.5166 6.69366 18.5274 6.75662 18.5511C6.81958 18.5748 6.87708 18.6111 6.92567 18.6576C6.97425 18.7042 7.01292 18.7601 7.03933 18.822C7.06575 18.8838 7.07936 18.9504 7.07936 19.0177C7.07936 19.085 7.06575 19.1516 7.03933 19.2135C7.01292 19.2754 6.97425 19.3313 6.92567 19.3778C6.87708 19.4243 6.81958 19.4606 6.75662 19.4843C6.69366 19.5081 6.62655 19.5188 6.55932 19.5159C6.43089 19.5104 6.30954 19.4555 6.22061 19.3627C6.13168 19.2699 6.08203 19.1463 6.08203 19.0177C6.08203 18.8892 6.13168 18.7656 6.22061 18.6727C6.30954 18.5799 6.43089 18.525 6.55932 18.5195Z" fill="#272343" stroke="#272343" stroke-width="1.5" stroke-linecap="round" stroke-linejoin="round"/>
<path fill-rule="evenodd" clip-rule="evenodd" d="M16.9 18.5195C17.0325 18.5195 17.1595 18.5722 17.2532 18.6659C17.3469 18.7595 17.3996 18.8866 17.3996 19.0191C17.3996 19.1516 17.3469 19.2787 17.2532 19.3724C17.1595 19.4661 17.0325 19.5187 16.9 19.5187C16.7675 19.5187 16.6404 19.4661 16.5467 19.3724C16.453 19.2787 16.4004 19.1516 16.4004 19.0191C16.4004 18.8866 16.453 18.7595 16.5467 18.6659C16.6404 18.5722 16.7675 18.5195 16.9 18.5195Z" fill="#272343" stroke="#272343" stroke-width="1.5" stroke-linecap="round" stroke-linejoin="round"/>
</svg>
