<svg width="202" height="162" viewBox="0 0 202 162" fill="none" xmlns="http://www.w3.org/2000/svg">
<path d="M142.876 161.363H60.1304C56.3528 161.363 52.6969 160.025 49.8087 157.584C46.9204 155.144 44.9858 151.759 44.3467 148.027L32.9757 81.6371H170.03L158.659 148.027C158.02 151.759 156.086 155.144 153.197 157.584C150.309 160.025 146.653 161.363 142.876 161.363Z" fill="black"/>
<path d="M170.327 75.2333H32.6795C29.4168 75.2333 26.7719 77.8843 26.7719 81.1545C26.7719 84.4247 29.4168 87.0757 32.6795 87.0757H170.327C173.589 87.0757 176.234 84.4247 176.234 81.1545C176.234 77.8843 173.589 75.2333 170.327 75.2333Z" fill="white"/>
<path d="M170.328 87.543H32.6794C30.9892 87.543 29.3682 86.87 28.173 85.6721C26.9778 84.4741 26.3063 82.8494 26.3063 81.1552C26.3063 79.4611 26.9778 77.8363 28.173 76.6384C29.3682 75.4404 30.9892 74.7675 32.6794 74.7675H170.328C172.018 74.7675 173.639 75.4404 174.835 76.6384C176.03 77.8363 176.701 79.4611 176.701 81.1552C176.701 82.8494 176.03 84.4741 174.835 85.6721C173.639 86.87 172.018 87.543 170.328 87.543ZM32.6809 75.7013C31.2378 75.7013 29.8538 76.2759 28.8333 77.2987C27.8129 78.3215 27.2396 79.7088 27.2396 81.1552C27.2396 82.6017 27.8129 83.9889 28.8333 85.0117C29.8538 86.0345 31.2378 86.6091 32.6809 86.6091H170.328C171.771 86.6091 173.155 86.0345 174.176 85.0117C175.196 83.9889 175.77 82.6017 175.77 81.1552C175.77 79.7088 175.196 78.3215 174.176 77.2987C173.155 76.2759 171.771 75.7013 170.328 75.7013H32.6809Z" fill="#757575"/>
<path d="M119.73 77.5207C118.191 79.4599 118.512 82.2822 120.446 83.8246C122.381 85.367 125.197 85.0454 126.736 83.1063L153.079 49.9105C154.618 47.9713 154.297 45.149 152.363 43.6066C150.428 42.0642 147.612 42.3858 146.073 44.3249L119.73 77.5207Z" fill="white"/>
<path d="M123.222 85.2684C122.107 85.2691 121.026 84.8889 120.155 84.1907C119.131 83.3721 118.472 82.1796 118.324 80.8749C118.176 79.5701 118.55 78.2597 119.364 77.231L145.707 44.0348C146.111 43.5257 146.612 43.1014 147.179 42.786C147.747 42.4707 148.371 42.2705 149.016 42.1969C149.661 42.1232 150.314 42.1776 150.937 42.3569C151.561 42.5363 152.144 42.837 152.652 43.2419C153.16 43.6469 153.583 44.1482 153.898 44.7171C154.212 45.286 154.412 45.9115 154.485 46.5579C154.559 47.2042 154.505 47.8587 154.326 48.484C154.147 49.1093 153.847 49.6931 153.443 50.2022L127.1 83.398C126.697 83.9084 126.197 84.3336 125.629 84.6491C125.061 84.9646 124.437 85.164 123.791 85.2359C123.602 85.2575 123.412 85.2683 123.222 85.2684ZM120.735 83.46C121.147 83.7887 121.62 84.0327 122.126 84.1782C122.633 84.3237 123.163 84.3678 123.686 84.3081C124.209 84.2483 124.716 84.0858 125.176 83.8299C125.637 83.5739 126.043 83.2295 126.37 82.8164L152.713 49.6202C153.041 49.2071 153.285 48.7333 153.43 48.2259C153.575 47.7185 153.619 47.1874 153.56 46.6629C153.5 46.1384 153.338 45.6308 153.083 45.1691C152.828 44.7074 152.484 44.3005 152.072 43.9719C151.66 43.6432 151.187 43.3991 150.681 43.2535C150.175 43.1079 149.645 43.0637 149.122 43.1234C148.598 43.1831 148.092 43.3455 147.631 43.6013C147.171 43.8572 146.765 44.2015 146.437 44.6146L120.093 77.8104C119.433 78.6451 119.129 79.7085 119.249 80.7673C119.37 81.8261 119.904 82.7938 120.735 83.4582V83.46Z" fill="#757575"/>
<path d="M122.932 82.3823C123.864 82.3823 124.619 81.6254 124.619 80.6916C124.619 79.7579 123.864 79.0009 122.932 79.0009C122.001 79.0009 121.245 79.7579 121.245 80.6916C121.245 81.6254 122.001 82.3823 122.932 82.3823Z" fill="white"/>
<path d="M122.937 82.8496C122.619 82.8498 122.304 82.7793 122.016 82.6431C121.728 82.507 121.474 82.3085 121.271 82.0621C121.069 81.8156 120.924 81.5273 120.846 81.2178C120.768 80.9083 120.759 80.5853 120.821 80.2721C120.9 79.8715 121.091 79.5017 121.372 79.2057C121.653 78.9098 122.012 78.6998 122.407 78.6002C122.802 78.5006 123.217 78.5155 123.605 78.6432C123.992 78.7709 124.335 79.0061 124.594 79.3215C124.852 79.6368 125.017 80.0194 125.067 80.4247C125.118 80.83 125.053 81.2413 124.879 81.6109C124.706 81.9805 124.431 82.2931 124.087 82.5123C123.743 82.7316 123.345 82.8486 122.937 82.8496ZM121.735 80.4537C121.68 80.7315 121.722 81.0198 121.856 81.2696C121.989 81.5193 122.205 81.715 122.466 81.8233C122.727 81.9317 123.017 81.9459 123.288 81.8636C123.558 81.7813 123.792 81.6075 123.948 81.372C124.105 81.1364 124.176 80.8536 124.148 80.5717C124.12 80.2899 123.996 80.0264 123.796 79.8262C123.596 79.6261 123.333 79.5016 123.052 79.474C122.771 79.4463 122.488 79.5173 122.254 79.6748C121.985 79.8553 121.798 80.1354 121.735 80.4537Z" fill="#757575"/>
<path d="M56.9339 44.3251C55.395 42.386 52.5791 42.0644 50.6444 43.6068C48.7097 45.1492 48.3889 47.9715 49.9277 49.9107L76.2713 83.1065C77.8102 85.0456 80.626 85.3672 82.5607 83.8248C84.4954 82.2824 84.8163 79.4601 83.2774 77.5209L56.9339 44.3251Z" fill="white"/>
<path d="M79.7793 85.2654C79.035 85.2669 78.3001 85.0997 77.6294 84.7762C76.9588 84.4528 76.3698 83.9815 75.9066 83.3976L49.5629 50.2018C48.747 49.1737 48.3719 47.8628 48.5202 46.5575C48.6686 45.2522 49.3282 44.0594 50.354 43.2416C51.3797 42.4237 52.6876 42.0478 53.9899 42.1965C55.2922 42.3452 56.4823 43.0063 57.2982 44.0344L83.6419 77.2307C84.2207 77.9594 84.5827 78.837 84.6862 79.7626C84.7898 80.6882 84.6307 81.6244 84.2274 82.4635C83.824 83.3026 83.1926 84.0107 82.4058 84.5063C81.6189 85.0019 80.7086 85.265 79.7793 85.2654ZM53.4267 43.1002C52.6727 43.1007 51.9341 43.3144 51.2958 43.7167C50.6575 44.1189 50.1453 44.6934 49.818 45.3742C49.4907 46.0551 49.3616 46.8146 49.4455 47.5656C49.5294 48.3167 49.8229 49.0288 50.2923 49.6202L76.6356 82.816C77.2984 83.6493 78.2638 84.185 79.3202 84.3057C80.3766 84.4263 81.4376 84.1221 82.2704 83.4597C82.6826 83.1311 83.0262 82.7244 83.2815 82.2627C83.5369 81.8011 83.699 81.2936 83.7586 80.7691C83.8182 80.2446 83.7742 79.7135 83.6291 79.2061C83.4839 78.6987 83.2404 78.225 82.9125 77.8119L56.5692 44.6161C56.1933 44.1423 55.7154 43.7599 55.1712 43.4974C54.627 43.2349 54.0306 43.0991 53.4267 43.1002Z" fill="#757575"/>
<path d="M80.0737 82.3823C81.0053 82.3823 81.7606 81.6254 81.7606 80.6916C81.7606 79.7579 81.0053 79.0009 80.0737 79.0009C79.1421 79.0009 78.3869 79.7579 78.3869 80.6916C78.3869 81.6254 79.1421 82.3823 80.0737 82.3823Z" fill="white"/>
<path d="M80.0693 82.8496C79.6616 82.8489 79.2624 82.7322 78.9183 82.5129C78.5741 82.2937 78.2992 81.9811 78.1254 81.6114C77.9516 81.2417 77.8861 80.8301 77.9366 80.4245C77.9871 80.019 78.1514 79.6361 78.4105 79.3205C78.6695 79.0049 79.0127 78.7696 79.4 78.6418C79.7873 78.514 80.2029 78.4991 80.5983 78.5988C80.9937 78.6985 81.3528 78.9087 81.6337 79.2049C81.9146 79.5011 82.1058 79.8712 82.1851 80.2721C82.2466 80.5853 82.2381 80.9082 82.1603 81.2177C82.0824 81.5271 81.9371 81.8154 81.7348 82.0619C81.5325 82.3084 81.2782 82.5068 80.9902 82.643C80.7022 82.7792 80.3877 82.8498 80.0693 82.8496ZM80.0764 79.4675C79.8246 79.4669 79.5788 79.5443 79.3727 79.6892C79.1665 79.834 79.0101 80.0392 78.9248 80.2767C78.8395 80.5141 78.8295 80.7722 78.8962 81.0155C78.9629 81.2588 79.103 81.4755 79.2974 81.6359C79.4918 81.7964 79.7308 81.8926 79.9819 81.9116C80.233 81.9305 80.4837 81.8712 80.6998 81.7417C80.916 81.6123 81.0869 81.419 81.1892 81.1884C81.2915 80.9579 81.3201 80.7012 81.2713 80.4537C81.2163 80.1763 81.0672 79.9266 80.8495 79.7468C80.6317 79.5671 80.3585 79.4684 80.0764 79.4675Z" fill="#757575"/>
<path d="M104.991 107.899C104.991 105.968 103.429 104.403 101.503 104.403C99.5765 104.403 98.015 105.968 98.015 107.899V140.951C98.015 142.882 99.5765 144.448 101.503 144.448C103.429 144.448 104.991 142.882 104.991 140.951V107.899Z" fill="white"/>
<path d="M71.6477 107.559C71.3517 105.651 69.5687 104.345 67.6653 104.641C65.7618 104.938 64.4587 106.725 64.7547 108.633L69.8213 141.293C70.1173 143.201 71.9002 144.507 73.8037 144.21C75.7071 143.914 77.0102 142.127 76.7142 140.219L71.6477 107.559Z" fill="white"/>
<path d="M127.012 140.218C126.716 142.126 128.019 143.913 129.922 144.21C131.826 144.507 133.609 143.2 133.905 141.292L138.971 108.633C139.267 106.725 137.964 104.937 136.061 104.641C134.157 104.344 132.374 105.65 132.078 107.558L127.012 140.218Z" fill="white"/>
<path d="M84.2916 60.1988C84.1918 60.1989 84.0944 60.1677 84.0132 60.1096C83.9088 60.0356 83.8381 59.9232 83.8165 59.7971C83.795 59.671 83.8245 59.5414 83.8984 59.437C83.9877 59.3111 92.707 46.7056 82.9731 35.2136C81.2502 33.169 79.1011 31.5259 76.6763 30.3995C74.2516 29.2731 71.6098 28.6905 68.9361 28.6928H68.8049C69.7293 31.904 69.5643 34.7591 68.2554 36.9494C67.6977 37.9392 66.8747 38.7536 65.8791 39.3008C64.8835 39.848 63.7548 40.1064 62.6203 40.0468C61.6812 39.9699 60.7849 39.6207 60.0412 39.0422C59.2975 38.4636 58.7386 37.6806 58.4331 36.7893C57.3626 33.9968 58.4814 31.2893 61.4301 29.5443C63.2981 28.5141 65.3738 27.9171 67.5037 27.7973C66.8108 25.9603 65.9099 24.2087 64.8184 22.5767C61.3037 17.2089 54.8982 13.4931 47.2436 12.382C40.7566 11.4407 34.5397 12.5494 31.4032 15.2058C31.3056 15.2885 31.179 15.3289 31.0515 15.3183C30.924 15.3077 30.8059 15.2468 30.7232 15.1491C30.6406 15.0514 30.6001 14.9249 30.6107 14.7974C30.6214 14.6698 30.6822 14.5517 30.7799 14.4691C34.1175 11.6424 40.634 10.4474 47.3821 11.4296C55.3102 12.5808 61.9594 16.4515 65.626 22.0503C66.8147 23.826 67.7817 25.7404 68.5053 27.751C71.3895 27.6817 74.2525 28.2604 76.8834 29.4444C79.5143 30.6284 81.846 32.3875 83.7069 34.5922C93.9315 46.6627 84.7765 59.8655 84.6829 59.9976C84.6383 60.0598 84.5795 60.1105 84.5115 60.1454C84.4435 60.1804 84.3681 60.1987 84.2916 60.1988ZM67.8168 28.728C65.7518 28.816 63.7351 29.3797 61.9237 30.3751C59.3783 31.8813 58.4355 34.0938 59.3363 36.4443C59.5803 37.1645 60.029 37.798 60.6274 38.2672C61.2259 38.7364 61.9481 39.021 62.7057 39.0862C63.6597 39.129 64.6067 38.9055 65.4409 38.4408C66.2751 37.9761 66.9636 37.2885 67.4294 36.4549C68.6307 34.4431 68.7407 31.7689 67.8154 28.728H67.8168Z" fill="#292A2E"/>
<path d="M23.0766 22.9844C22.2568 23.2307 21.3731 23.1472 20.6139 22.7517C19.8547 22.3563 19.2798 21.6801 19.0117 20.8671C18.7436 20.0541 18.8034 19.1686 19.1785 18.399C19.5535 17.6295 20.2142 17.0368 21.0197 16.7471C21.8253 16.4574 22.7121 16.4936 23.4913 16.8479C24.2706 17.2023 24.8807 17.8469 25.1919 18.6444C25.503 19.4419 25.4905 20.3294 25.157 21.1178C24.8236 21.9063 24.1955 22.5334 23.4066 22.8657C23.2989 22.9112 23.1887 22.9509 23.0766 22.9844ZM21.4725 17.6234C21.3943 17.6469 21.3175 17.6746 21.2423 17.7063C20.6872 17.9404 20.2454 18.3819 20.011 18.9369C19.7767 19.4919 19.7682 20.1164 19.9875 20.6775C20.2068 21.2386 20.6364 21.692 21.185 21.941C21.7336 22.19 22.3577 22.2149 22.9244 22.0106C23.4911 21.8062 23.9557 21.3887 24.2191 20.8469C24.4825 20.3051 24.524 19.6819 24.3347 19.11C24.1455 18.538 23.7404 18.0626 23.2057 17.7849C22.6711 17.5073 22.0492 17.4493 21.4725 17.6234Z" fill="#292A2E"/>
<path d="M23.0708 15.4243C22.2953 15.6559 21.4615 15.5926 20.7298 15.2466C19.9981 14.9006 19.4201 14.2964 19.107 13.55C18.8559 12.9517 18.788 12.2923 18.9117 11.6553C19.0354 11.0183 19.3452 10.4323 19.8019 9.97142C20.2587 9.51052 20.8418 9.19541 21.4777 9.06596C22.1135 8.93651 22.7735 8.99853 23.3741 9.24417C23.9747 9.4898 24.4889 9.90803 24.8518 10.446C25.2147 10.9839 25.41 11.6173 25.4128 12.2662C25.4157 12.9151 25.2261 13.5503 24.8679 14.0914C24.5098 14.6325 23.9992 15.0552 23.4008 15.3061C23.293 15.3513 23.1828 15.3907 23.0708 15.4243ZM21.4686 10.0629C21.3895 10.0866 21.3118 10.1144 21.2356 10.1463C20.6696 10.384 20.2212 10.8368 19.9889 11.405C19.7565 11.9732 19.7593 12.6104 19.9967 13.1766C20.1697 13.5893 20.4587 13.943 20.8285 14.195C21.1984 14.4469 21.6334 14.5863 22.0808 14.5962C22.5282 14.6062 22.9689 14.4863 23.3496 14.251C23.7303 14.0157 24.0347 13.6752 24.2259 13.2706C24.4172 12.866 24.4871 12.4147 24.4272 11.9712C24.3673 11.5277 24.1802 11.111 23.8885 10.7716C23.5968 10.4322 23.213 10.1846 22.7836 10.0587C22.3541 9.93286 21.8974 9.93412 21.4686 10.0624V10.0629Z" fill="#292A2E"/>
<path d="M22.1344 18.8362C24.5037 18.8362 26.4244 17.5534 26.4244 15.971C26.4244 14.3885 24.5037 13.1057 22.1344 13.1057C19.7651 13.1057 17.8444 14.3885 17.8444 15.971C17.8444 17.5534 19.7651 18.8362 22.1344 18.8362Z" fill="white"/>
<path d="M24.0333 19.0471C23.4182 19.2289 22.7801 19.3205 22.1387 19.3192C19.4621 19.3192 17.3624 17.8525 17.3624 15.9753C17.3624 14.0981 19.4558 12.6261 22.1315 12.6232C23.298 12.6009 24.4457 12.9194 25.4339 13.5399C25.8776 13.7711 26.2496 14.1195 26.5093 14.5472C26.769 14.9749 26.9066 15.4656 26.907 15.966C26.9075 16.4664 26.7708 16.9574 26.5119 17.3856C26.2529 17.8138 25.8816 18.1628 25.4382 18.3948C25.0048 18.6806 24.5313 18.9004 24.0333 19.0471ZM20.5297 13.8178C19.2406 14.2037 18.3268 15.0369 18.3273 15.9729C18.3273 17.2644 20.0724 18.3543 22.1387 18.3523C23.1148 18.3729 24.0757 18.1087 24.9041 17.592C25.2148 17.4489 25.4779 17.2197 25.6623 16.9316C25.8466 16.6434 25.9444 16.3085 25.9441 15.9664C25.9438 15.6244 25.8454 15.2896 25.6605 15.0018C25.4757 14.714 25.2122 14.4852 24.9012 14.3427C24.0722 13.8271 23.1108 13.5645 22.1348 13.5872C21.5915 13.5858 21.0507 13.6634 20.5297 13.8178Z" fill="#292A2E"/>
<path d="M23.1866 18.7489L23.0853 13.1766L21.6997 13.1206L21.6027 18.8141L23.1866 18.7489Z" fill="#292A2E"/>
<path d="M16.4429 17.1834C16.6875 17.1834 16.8858 16.9851 16.8858 16.7405C16.8858 16.4959 16.6875 16.2976 16.4429 16.2976C16.1983 16.2976 16 16.4959 16 16.7405C16 16.9851 16.1983 17.1834 16.4429 17.1834Z" fill="#292A2E"/>
<path d="M16.7888 14.8136C17.0334 14.8136 17.2317 14.6153 17.2317 14.3707C17.2317 14.1261 17.0334 13.9278 16.7888 13.9278C16.5442 13.9278 16.3459 14.1261 16.3459 14.3707C16.3459 14.6153 16.5442 14.8136 16.7888 14.8136Z" fill="#292A2E"/>
<path d="M119.633 64.0528C119.529 64.0528 119.429 64.0196 119.346 63.9582C119.263 63.8968 119.202 63.8104 119.171 63.7117C117.571 57.7359 117.144 51.5066 117.914 45.3684C119.161 36.3948 124.11 24.6176 140.604 19.4607C142.924 18.7145 145.305 18.1688 147.719 17.8295C148.496 12.9755 151.453 7.71006 158.065 4.07719C173.774 -4.55484 184.386 3.18996 184.491 3.26909C184.593 3.34586 184.661 3.46015 184.679 3.58682C184.697 3.71349 184.664 3.84216 184.588 3.94452C184.511 4.04688 184.396 4.11456 184.27 4.13265C184.143 4.15075 184.014 4.11778 183.912 4.04101C183.812 3.96575 173.671 -3.39696 158.53 4.92342C152.351 8.31843 149.523 13.1912 148.719 17.7147C155.994 16.9982 159.478 19.425 161.041 21.2578C162.009 22.36 162.631 23.7225 162.829 25.1755C163.028 26.6285 162.794 28.1078 162.158 29.4291C161.655 30.4971 160.84 31.3874 159.821 31.9825C158.801 32.5776 157.625 32.8496 156.448 32.7624C152.385 32.524 149.023 29.1063 147.883 24.0551C147.508 22.3451 147.408 20.5861 147.587 18.8446C145.317 19.1708 143.077 19.6857 140.892 20.3841C128.037 24.4034 120.629 32.8555 118.869 45.5039C118.115 51.5029 118.531 57.5911 120.094 63.4319C120.116 63.504 120.121 63.5803 120.108 63.6547C120.095 63.7291 120.065 63.7994 120.02 63.8601C119.976 63.9207 119.917 63.97 119.85 64.004C119.782 64.038 119.708 64.0557 119.633 64.0557V64.0528ZM148.571 18.724C148.37 20.4323 148.456 22.1622 148.825 23.8423C149.867 28.4632 152.882 31.5862 156.504 31.7989C157.492 31.8697 158.478 31.6403 159.332 31.141C160.187 30.6416 160.871 29.8956 161.294 29.0007C161.846 27.8485 162.046 26.5595 161.871 25.2942C161.695 24.0289 161.151 22.8433 160.306 21.885C158.05 19.2378 153.933 18.1687 148.571 18.724Z" fill="#292A2E"/>
<path d="M195.729 8.14524C195.079 8.14388 194.443 7.9588 193.894 7.61136C193.345 7.26392 192.905 6.76829 192.626 6.18166C192.346 5.59504 192.238 4.94133 192.315 4.296C192.391 3.65066 192.648 3.04 193.056 2.53449C193.464 2.02899 194.007 1.64924 194.622 1.43908C195.237 1.22892 195.899 1.19692 196.531 1.34676C197.163 1.49661 197.74 1.8222 198.196 2.28595C198.651 2.7497 198.966 3.33271 199.104 3.96769C199.212 4.47104 199.206 4.99221 199.087 5.49302C198.967 5.99384 198.737 6.46163 198.414 6.86214C198.09 7.26265 197.681 7.58574 197.217 7.80775C196.752 8.02976 196.244 8.14507 195.729 8.14524ZM195.737 2.2188C195.223 2.21878 194.723 2.37793 194.304 2.6743C193.885 2.97067 193.568 3.38968 193.398 3.87356C193.227 4.35745 193.21 4.8824 193.35 5.37606C193.49 5.86972 193.78 6.30779 194.18 6.62989C194.579 6.95199 195.069 7.14226 195.581 7.17448C196.093 7.2067 196.602 7.07928 197.039 6.80979C197.476 6.5403 197.818 6.142 198.019 5.66978C198.22 5.19757 198.269 4.67469 198.16 4.17321C198.043 3.61838 197.737 3.12105 197.296 2.76505C196.854 2.40904 196.304 2.21612 195.737 2.2188Z" fill="#292A2E"/>
<path d="M194.277 16.0193C193.392 16.0193 192.542 15.6802 191.9 15.0719C191.258 14.4637 190.874 13.6325 190.827 12.7495C190.779 11.8666 191.072 10.999 191.645 10.3254C192.218 9.65183 193.027 9.22352 193.906 9.12864C194.785 9.03377 195.667 9.27956 196.371 9.8154C197.074 10.3513 197.545 11.1364 197.687 12.0092C197.829 12.8819 197.631 13.7759 197.134 14.5071C196.637 15.2383 195.878 15.751 195.014 15.9397C194.772 15.9926 194.525 16.0193 194.277 16.0193ZM194.289 10.0924C194.11 10.0925 193.932 10.1117 193.758 10.1498C193.142 10.2852 192.601 10.6516 192.246 11.1737C191.892 11.6957 191.751 12.3337 191.853 12.9565C191.955 13.5792 192.291 14.1392 192.793 14.5213C193.296 14.9034 193.925 15.0786 194.552 15.0107C195.18 14.9428 195.757 14.6371 196.166 14.1565C196.575 13.6758 196.784 13.0568 196.75 12.4267C196.716 11.7967 196.442 11.2035 195.984 10.7693C195.526 10.3351 194.92 10.0928 194.289 10.0924Z" fill="#292A2E"/>
<path d="M199.458 9.55471C199.762 7.90682 198.008 6.20185 195.541 5.74658C193.074 5.2913 190.827 6.25812 190.523 7.90602C190.219 9.55391 191.973 11.2589 194.44 11.7141C196.907 12.1694 199.154 11.2026 199.458 9.55471Z" fill="white"/>
<path d="M195.655 12.3098C195.218 12.3091 194.782 12.2687 194.352 12.1892C193.139 11.9878 192.011 11.4369 191.106 10.6038C190.71 10.2659 190.405 9.83362 190.221 9.34689C190.036 8.86016 189.977 8.3347 190.049 7.8191C190.166 7.31176 190.409 6.84203 190.755 6.45331C191.101 6.06458 191.54 5.76939 192.03 5.59499C193.178 5.16155 194.422 5.05011 195.629 5.27273C196.835 5.49535 197.958 6.04355 198.875 6.85805C199.271 7.19595 199.575 7.62825 199.76 8.11498C199.945 8.60171 200.004 9.12717 199.932 9.64277C199.815 10.1501 199.572 10.6198 199.226 11.0086C198.88 11.3973 198.441 11.6925 197.951 11.8669C197.223 12.1679 196.442 12.3186 195.655 12.3098ZM194.322 6.11604C193.667 6.10771 193.017 6.23194 192.411 6.48126C192.069 6.59601 191.76 6.79446 191.513 7.05864C191.266 7.32282 191.089 7.64438 190.998 7.99423C190.958 8.35359 191.009 8.71715 191.145 9.05201C191.282 9.38686 191.499 9.68244 191.779 9.91198C192.559 10.5931 193.508 11.0517 194.527 11.2397C195.545 11.4278 196.596 11.3382 197.568 10.9806C197.911 10.8659 198.22 10.6674 198.466 10.4032C198.713 10.1391 198.89 9.81748 198.982 9.46764C199.021 9.10826 198.971 8.74461 198.835 8.40971C198.698 8.07481 198.48 7.77926 198.201 7.54989C197.433 6.84926 196.477 6.3877 195.451 6.2217C195.079 6.1525 194.702 6.11713 194.324 6.11604H194.322Z" fill="#292A2E"/>
<path d="M194.433 5.63552L193.463 11.4568L194.895 11.7829L196.095 5.87337L194.433 5.63552Z" fill="#292A2E"/>
<path d="M200.249 11.8982C200.508 11.8982 200.718 11.6883 200.718 11.4293C200.718 11.1703 200.508 10.9604 200.249 10.9604C199.99 10.9604 199.78 11.1703 199.78 11.4293C199.78 11.6883 199.99 11.8982 200.249 11.8982Z" fill="#292A2E"/>
<path d="M201.067 9.49756C201.326 9.49756 201.536 9.2876 201.536 9.02861C201.536 8.76962 201.326 8.55967 201.067 8.55967C200.808 8.55967 200.598 8.76962 200.598 9.02861C200.598 9.2876 200.808 9.49756 201.067 9.49756Z" fill="#292A2E"/>
</svg>
