<svg width="22" height="22" viewBox="0 0 22 22" fill="none" xmlns="http://www.w3.org/2000/svg">
<path fill-rule="evenodd" clip-rule="evenodd" d="M10.9866 14.0664C7.4409 14.0664 4.41406 14.6027 4.41406 16.7495C4.41406 18.8963 7.42165 19.4518 10.9866 19.4518C14.5313 19.4518 17.5591 18.9147 17.5591 16.7687C17.5591 14.6228 14.5506 14.0664 10.9866 14.0664V14.0664Z" stroke="#030812" stroke-width="1.5" stroke-linecap="round" stroke-linejoin="round"/>
<path fill-rule="evenodd" clip-rule="evenodd" d="M10.9865 11.0051C11.8197 11.0051 12.6343 10.758 13.3271 10.2951C14.0199 9.83215 14.5599 9.17417 14.8788 8.40435C15.1976 7.63452 15.2811 6.78743 15.1185 5.97019C14.956 5.15295 14.5547 4.40226 13.9655 3.81306C13.3763 3.22386 12.6256 2.82261 11.8084 2.66006C10.9911 2.4975 10.144 2.58093 9.37422 2.8998C8.60439 3.21867 7.94641 3.75866 7.48348 4.45149C7.02055 5.14431 6.77346 5.95885 6.77346 6.7921C6.76957 7.90541 7.20803 8.97469 7.99242 9.76475C8.77682 10.5548 9.8429 11.001 10.9562 11.0051H10.9865Z" stroke="#030812" stroke-width="1.429" stroke-linecap="round" stroke-linejoin="round"/>
</svg>
