<svg width="202" height="34" viewBox="0 0 202 34" fill="none" xmlns="http://www.w3.org/2000/svg">
<path d="M14.6465 17L7.5 24.1465L0.353516 17L7.5 9.85352L14.6465 17Z" stroke="#030812" stroke-width="0.5"/>
<path d="M14.6465 17L7.5 24.1465L0.353516 17L7.5 9.85352L14.6465 17Z" stroke="#030812" stroke-width="0.5"/>
<path d="M14.6465 17L7.5 24.1465L0.353516 17L7.5 9.85352L14.6465 17Z" stroke="#030812" stroke-width="0.5"/>
<path d="M30.6465 17L23.5 24.1465L16.3535 17L23.5 9.85352L30.6465 17Z" stroke="#030812" stroke-width="0.5"/>
<path d="M30.6465 17L23.5 24.1465L16.3535 17L23.5 9.85352L30.6465 17Z" stroke="#030812" stroke-width="0.5"/>
<path d="M30.6465 17L23.5 24.1465L16.3535 17L23.5 9.85352L30.6465 17Z" stroke="#030812" stroke-width="0.5"/>
<path d="M22.6465 17L15.5 24.1465L8.35352 17L15.5 9.85352L22.6465 17Z" stroke="#030812" stroke-width="0.5"/>
<path d="M22.6465 17L15.5 24.1465L8.35352 17L15.5 9.85352L22.6465 17Z" stroke="#030812" stroke-width="0.5"/>
<path d="M22.6465 17L15.5 24.1465L8.35352 17L15.5 9.85352L22.6465 17Z" stroke="#030812" stroke-width="0.5"/>
<path d="M57.078 27V25.852L59.822 25.404L59.85 16.444L59.822 7.778L57.078 7.302V6H65.548V7.302L62.342 7.778L62.314 16.444L62.342 25.39L63.07 25.754H70.056L71.554 21.26H72.94L72.24 27H57.078ZM73.6951 14.708V13.63L77.1951 13.154H77.6851L78.0351 13.658L78.0071 20.378V23.038C78.0071 23.8313 78.2311 24.4707 78.6791 24.956C79.1271 25.4413 79.7711 25.684 80.6111 25.684C81.3111 25.684 82.0251 25.502 82.7531 25.138C83.4905 24.7647 84.0831 24.2047 84.5311 23.458L84.9371 24.172C84.5358 25.0587 83.8498 25.8007 82.8791 26.398C81.9178 26.986 80.8911 27.28 79.7991 27.28C78.4271 27.28 77.3911 26.9393 76.6911 26.258C76.0005 25.5767 75.6551 24.6247 75.6551 23.402C75.6551 22.6927 75.6645 22.0113 75.6831 21.358C75.7111 20.7047 75.7251 20.378 75.7251 20.378L75.6551 15.128L73.6951 14.708ZM82.6271 14.708V13.63L86.0011 13.154H86.4911L86.8411 13.658L86.8131 20.378L86.8411 25.152L88.8151 25.572V26.538L85.3011 27.014L84.8111 26.636L84.4611 24.998L84.4891 20.378L84.4611 15.128L82.6271 14.708ZM89.8555 27V26.076L92.0815 25.586L96.3095 19.608L96.5055 19.398L99.7115 14.624L97.6955 14.204V13.168H103.31V14.204L101.21 14.68L97.1775 20.294L97.0655 20.392L93.5795 25.642L95.4415 26.076V27H89.8555ZM89.9535 14.204V13.168H95.6795V14.204L94.0555 14.722L97.4155 19.286L102.036 25.586L103.772 26.076V27H97.8495V26.076L99.5155 25.558L96.0015 20.686L91.5495 14.694L89.9535 14.204ZM104.61 20.084C104.61 18.0493 105.254 16.3367 106.542 14.946C107.83 13.5553 109.51 12.86 111.582 12.86C113.663 12.86 115.352 13.5133 116.65 14.82C117.956 16.1173 118.61 17.844 118.61 20C118.61 22.0347 117.97 23.7613 116.692 25.18C115.413 26.5987 113.738 27.308 111.666 27.308C109.575 27.308 107.876 26.65 106.57 25.334C105.263 24.0087 104.61 22.2587 104.61 20.084ZM107.13 19.804C107.139 21.6613 107.545 23.1687 108.348 24.326C109.16 25.474 110.228 26.048 111.554 26.048C112.982 26.048 114.078 25.53 114.844 24.494C115.618 23.4487 116.006 21.9553 116.006 20.014C116.006 18.222 115.6 16.8033 114.788 15.758C113.985 14.7127 112.916 14.19 111.582 14.19C110.144 14.19 109.038 14.666 108.264 15.618C107.498 16.57 107.12 17.9653 107.13 19.804ZM120.432 27V26.076L122.406 25.586L122.434 19.79L122.406 15.156L120.432 14.708V13.63L124.058 13.154L124.492 13.476L124.786 14.946L124.758 19.79L124.786 25.586L126.886 26.076V27H120.432ZM124.464 16.99L124.058 16.304C124.45 15.3987 125.098 14.6427 126.004 14.036C126.909 13.42 128.057 13.112 129.448 13.112H130.764V16.696H129.518L128.832 14.722C128.038 14.722 127.245 14.9087 126.452 15.282C125.658 15.6553 124.996 16.2247 124.464 16.99ZM131.59 23.43C131.59 22.3007 132.281 21.274 133.662 20.35C135.053 19.4167 137.26 18.6653 140.284 18.096L140.41 19.006C138.403 19.342 136.849 19.86 135.748 20.56C134.656 21.2507 134.11 22.128 134.11 23.192C134.11 24.0693 134.376 24.7227 134.908 25.152C135.44 25.5813 136.117 25.796 136.938 25.796C137.806 25.796 138.585 25.5347 139.276 25.012C139.967 24.4893 140.354 23.976 140.438 23.472H140.844C140.853 24.3587 140.363 25.2033 139.374 26.006C138.394 26.8087 137.218 27.21 135.846 27.21C134.455 27.21 133.396 26.86 132.668 26.16C131.949 25.46 131.59 24.55 131.59 23.43ZM132.346 14.904C132.589 14.4653 133.116 14.0173 133.928 13.56C134.749 13.0933 135.799 12.86 137.078 12.86C138.693 12.86 139.967 13.3127 140.9 14.218C141.843 15.114 142.328 16.6727 142.356 18.894L142.426 25.586L144.4 26.076V27H140.998L140.368 26.286L140.032 24.676L140.074 18.824C140.083 17.088 139.785 15.8933 139.178 15.24C138.571 14.5867 137.689 14.26 136.532 14.26C135.692 14.26 134.978 14.3813 134.39 14.624C133.802 14.8667 133.312 15.156 132.92 15.492L132.346 14.904Z" fill="#030812"/>
<path d="M185.646 17L178.5 24.1465L171.354 17L178.5 9.85352L185.646 17Z" stroke="#030812" stroke-width="0.5"/>
<path d="M185.646 17L178.5 24.1465L171.354 17L178.5 9.85352L185.646 17Z" stroke="#030812" stroke-width="0.5"/>
<path d="M185.646 17L178.5 24.1465L171.354 17L178.5 9.85352L185.646 17Z" stroke="#030812" stroke-width="0.5"/>
<path d="M201.646 17L194.5 24.1465L187.354 17L194.5 9.85352L201.646 17Z" stroke="#030812" stroke-width="0.5"/>
<path d="M201.646 17L194.5 24.1465L187.354 17L194.5 9.85352L201.646 17Z" stroke="#030812" stroke-width="0.5"/>
<path d="M201.646 17L194.5 24.1465L187.354 17L194.5 9.85352L201.646 17Z" stroke="#030812" stroke-width="0.5"/>
<path d="M193.646 17L186.5 24.1465L179.354 17L186.5 9.85352L193.646 17Z" stroke="#030812" stroke-width="0.5"/>
<path d="M193.646 17L186.5 24.1465L179.354 17L186.5 9.85352L193.646 17Z" stroke="#030812" stroke-width="0.5"/>
<path d="M193.646 17L186.5 24.1465L179.354 17L186.5 9.85352L193.646 17Z" stroke="#030812" stroke-width="0.5"/>
</svg>
