<svg width="25" height="27" viewBox="0 0 25 27" fill="none" xmlns="http://www.w3.org/2000/svg">
<path fill-rule="evenodd" clip-rule="evenodd" d="M19.0142 0.072112C18.5549 -0.0705477 17.9664 -0.0132771 17.5609 0.349833C17.1535 0.00252388 16.5853 -0.0738113 16.1176 0.0722032C15.0509 0.404602 14.7223 1.59583 15.0198 2.49499C15.2592 3.21628 15.7756 3.74918 16.275 4.09887C16.5258 4.2744 16.777 4.40725 16.9962 4.49702C17.207 4.58339 17.4131 4.64024 17.5673 4.64024C17.7224 4.64024 17.9299 4.58195 18.1412 4.49458C18.3613 4.40362 18.6136 4.2694 18.8649 4.09301C19.365 3.74201 19.8819 3.20901 20.1144 2.49413C20.4115 1.59463 20.0801 0.404298 19.0142 0.072112ZM18.5377 0.982606C18.3988 0.968799 18.2747 1.06655 18.2605 1.20094C18.2462 1.33532 18.3472 1.45546 18.486 1.46926C18.5748 1.4781 18.635 1.51387 18.6745 1.56225C18.7156 1.61262 18.7478 1.69363 18.7437 1.81018C18.739 1.94519 18.8483 2.05832 18.9878 2.06285C19.1273 2.06738 19.2442 1.9616 19.2488 1.82658C19.2562 1.61511 19.1986 1.41506 19.0709 1.2588C18.9416 1.10054 18.7539 1.0041 18.5377 0.982606Z" fill="white"/>
<path d="M20.255 12.0783C20.2492 14.2415 20.2426 16.6787 18.7918 19.1212C13.5071 27.1538 3.83496 20.0956 4.85788 16.1743C5.38829 14.7655 6.95524 14.6023 7.95443 15.1454C8.2696 15.4074 8.54294 15.7759 8.83678 16.172C8.88392 16.2355 8.93159 16.2998 8.98004 16.3644C9.11308 16.5734 9.27838 16.7914 9.50889 17.0213C9.83845 17.3905 10.2239 17.7355 10.7158 17.9925C11.0478 18.1812 11.3993 18.31 11.7507 18.3877C12.5828 18.6332 13.2835 18.5635 13.8616 18.3111C15.4364 17.7954 16.4675 15.4221 16.2442 12.8064C16.2189 11.4066 15.8476 10.1674 15.2392 9.11389C15.2417 9.11418 15.2442 9.11447 15.2466 9.11476C15.2173 9.06838 15.1879 9.02248 15.1582 8.97706C14.7767 8.34786 14.3096 7.78738 13.7813 7.30124C11.5272 5.12878 8.83389 4.83132 7.40667 5.07212C-1.02811 5.84889 -2.53366 18.2809 4.31235 24.1336C9.29207 28.3908 19.8816 28.1512 23.5232 19.7083C24.8026 17.2554 24.721 14.6298 24.5913 10.4583C24.5767 9.98742 24.5615 9.49688 24.5475 8.98467V5.35769C23.6699 5.34419 22.0484 5.73406 21.0389 7.17099C20.9289 7.31265 20.828 7.46417 20.7382 7.62605C20.388 8.08289 20.0468 9.04571 20.262 11.1507C20.2567 11.4535 20.2559 11.763 20.255 12.0783Z" fill="white"/>
</svg>
