<svg width="182" height="34" viewBox="0 0 182 34" fill="none" xmlns="http://www.w3.org/2000/svg">
<path d="M14.6465 17L7.5 24.1465L0.353516 17L7.5 9.85352L14.6465 17Z" stroke="white" stroke-width="0.5"/>
<path d="M14.6465 17L7.5 24.1465L0.353516 17L7.5 9.85352L14.6465 17Z" stroke="white" stroke-width="0.5"/>
<path d="M14.6465 17L7.5 24.1465L0.353516 17L7.5 9.85352L14.6465 17Z" stroke="white" stroke-width="0.5"/>
<path d="M30.6465 17L23.5 24.1465L16.3535 17L23.5 9.85352L30.6465 17Z" stroke="white" stroke-width="0.5"/>
<path d="M30.6465 17L23.5 24.1465L16.3535 17L23.5 9.85352L30.6465 17Z" stroke="white" stroke-width="0.5"/>
<path d="M30.6465 17L23.5 24.1465L16.3535 17L23.5 9.85352L30.6465 17Z" stroke="white" stroke-width="0.5"/>
<path d="M22.6465 17L15.5 24.1465L8.35352 17L15.5 9.85352L22.6465 17Z" stroke="white" stroke-width="0.5"/>
<path d="M22.6465 17L15.5 24.1465L8.35352 17L15.5 9.85352L22.6465 17Z" stroke="white" stroke-width="0.5"/>
<path d="M22.6465 17L15.5 24.1465L8.35352 17L15.5 9.85352L22.6465 17Z" stroke="white" stroke-width="0.5"/>
<path d="M47.078 27V25.852L49.822 25.404L49.85 16.444L49.822 7.778L47.078 7.302V6H55.548V7.302L52.342 7.778L52.314 16.444L52.342 25.39L53.07 25.754H60.056L61.554 21.26H62.94L62.24 27H47.078ZM63.6951 14.708V13.63L67.1951 13.154H67.6851L68.0351 13.658L68.0071 20.378V23.038C68.0071 23.8313 68.2311 24.4707 68.6791 24.956C69.1271 25.4413 69.7711 25.684 70.6111 25.684C71.3111 25.684 72.0251 25.502 72.7531 25.138C73.4905 24.7647 74.0831 24.2047 74.5311 23.458L74.9371 24.172C74.5358 25.0587 73.8498 25.8007 72.8791 26.398C71.9178 26.986 70.8911 27.28 69.7991 27.28C68.4271 27.28 67.3911 26.9393 66.6911 26.258C66.0005 25.5767 65.6551 24.6247 65.6551 23.402C65.6551 22.6927 65.6645 22.0113 65.6831 21.358C65.7111 20.7047 65.7251 20.378 65.7251 20.378L65.6551 15.128L63.6951 14.708ZM72.6271 14.708V13.63L76.0011 13.154H76.4911L76.8411 13.658L76.8131 20.378L76.8411 25.152L78.8151 25.572V26.538L75.3011 27.014L74.8111 26.636L74.4611 24.998L74.4891 20.378L74.4611 15.128L72.6271 14.708ZM79.8555 27V26.076L82.0815 25.586L86.3095 19.608L86.5055 19.398L89.7115 14.624L87.6955 14.204V13.168H93.3095V14.204L91.2095 14.68L87.1775 20.294L87.0655 20.392L83.5795 25.642L85.4415 26.076V27H79.8555ZM79.9535 14.204V13.168H85.6795V14.204L84.0555 14.722L87.4155 19.286L92.0355 25.586L93.7715 26.076V27H87.8495V26.076L89.5155 25.558L86.0015 20.686L81.5495 14.694L79.9535 14.204ZM94.6095 20.084C94.6095 18.0493 95.2535 16.3367 96.5415 14.946C97.8295 13.5553 99.5095 12.86 101.582 12.86C103.663 12.86 105.352 13.5133 106.65 14.82C107.956 16.1173 108.61 17.844 108.61 20C108.61 22.0347 107.97 23.7613 106.692 25.18C105.413 26.5987 103.738 27.308 101.666 27.308C99.5749 27.308 97.8762 26.65 96.5695 25.334C95.2629 24.0087 94.6095 22.2587 94.6095 20.084ZM97.1295 19.804C97.1389 21.6613 97.5449 23.1687 98.3475 24.326C99.1595 25.474 100.228 26.048 101.554 26.048C102.982 26.048 104.078 25.53 104.844 24.494C105.618 23.4487 106.006 21.9553 106.006 20.014C106.006 18.222 105.6 16.8033 104.788 15.758C103.985 14.7127 102.916 14.19 101.582 14.19C100.144 14.19 99.0382 14.666 98.2635 15.618C97.4982 16.57 97.1202 17.9653 97.1295 19.804ZM110.432 27V26.076L112.406 25.586L112.434 19.79L112.406 15.156L110.432 14.708V13.63L114.058 13.154L114.492 13.476L114.786 14.946L114.758 19.79L114.786 25.586L116.886 26.076V27H110.432ZM114.464 16.99L114.058 16.304C114.45 15.3987 115.098 14.6427 116.004 14.036C116.909 13.42 118.057 13.112 119.448 13.112H120.764V16.696H119.518L118.832 14.722C118.038 14.722 117.245 14.9087 116.452 15.282C115.658 15.6553 114.996 16.2247 114.464 16.99ZM121.59 23.43C121.59 22.3007 122.281 21.274 123.662 20.35C125.053 19.4167 127.26 18.6653 130.284 18.096L130.41 19.006C128.403 19.342 126.849 19.86 125.748 20.56C124.656 21.2507 124.11 22.128 124.11 23.192C124.11 24.0693 124.376 24.7227 124.908 25.152C125.44 25.5813 126.117 25.796 126.938 25.796C127.806 25.796 128.585 25.5347 129.276 25.012C129.967 24.4893 130.354 23.976 130.438 23.472H130.844C130.853 24.3587 130.363 25.2033 129.374 26.006C128.394 26.8087 127.218 27.21 125.846 27.21C124.455 27.21 123.396 26.86 122.668 26.16C121.949 25.46 121.59 24.55 121.59 23.43ZM122.346 14.904C122.589 14.4653 123.116 14.0173 123.928 13.56C124.749 13.0933 125.799 12.86 127.078 12.86C128.693 12.86 129.967 13.3127 130.9 14.218C131.843 15.114 132.328 16.6727 132.356 18.894L132.426 25.586L134.4 26.076V27H130.998L130.368 26.286L130.032 24.676L130.074 18.824C130.083 17.088 129.785 15.8933 129.178 15.24C128.571 14.5867 127.689 14.26 126.532 14.26C125.692 14.26 124.978 14.3813 124.39 14.624C123.802 14.8667 123.312 15.156 122.92 15.492L122.346 14.904Z" fill="white"/>
<path d="M165.646 17L158.5 24.1465L151.354 17L158.5 9.85352L165.646 17Z" stroke="white" stroke-width="0.5"/>
<path d="M165.646 17L158.5 24.1465L151.354 17L158.5 9.85352L165.646 17Z" stroke="white" stroke-width="0.5"/>
<path d="M165.646 17L158.5 24.1465L151.354 17L158.5 9.85352L165.646 17Z" stroke="white" stroke-width="0.5"/>
<path d="M181.646 17L174.5 24.1465L167.354 17L174.5 9.85352L181.646 17Z" stroke="white" stroke-width="0.5"/>
<path d="M181.646 17L174.5 24.1465L167.354 17L174.5 9.85352L181.646 17Z" stroke="white" stroke-width="0.5"/>
<path d="M181.646 17L174.5 24.1465L167.354 17L174.5 9.85352L181.646 17Z" stroke="white" stroke-width="0.5"/>
<path d="M173.646 17L166.5 24.1465L159.354 17L166.5 9.85352L173.646 17Z" stroke="white" stroke-width="0.5"/>
<path d="M173.646 17L166.5 24.1465L159.354 17L166.5 9.85352L173.646 17Z" stroke="white" stroke-width="0.5"/>
<path d="M173.646 17L166.5 24.1465L159.354 17L166.5 9.85352L173.646 17Z" stroke="white" stroke-width="0.5"/>
</svg>
